<svg width="44" height="44" viewBox="0 0 44 44" fill="none" xmlns="http://www.w3.org/2000/svg">
<path d="M7 12H8V13H7V12Z" fill="#1D1D1B"/>
<path d="M10 12H9V13H10V12Z" fill="#1D1D1B"/>
<path d="M11 12H12V13H11V12Z" fill="#1D1D1B"/>
<path fill-rule="evenodd" clip-rule="evenodd" d="M4 9H40V35H4V9ZM38 11H6V14H38V11ZM6 33V15H38V33H6Z" fill="#1D1D1B"/>
<path fill-rule="evenodd" clip-rule="evenodd" d="M22 31C25.866 31 29 27.866 29 24C29 20.134 25.866 17 22 17C18.134 17 15 20.134 15 24C15 27.866 18.134 31 22 31ZM22.188 29.9971C22.1256 29.999 22.0629 30 22 30C21.9371 30 21.8744 29.999 21.812 29.9971C21.5579 29.667 21.244 29.2247 20.9303 28.6947C20.604 28.1435 20.2822 27.505 20.0267 26.8049C20.6491 26.6069 21.3121 26.5 22 26.5C22.6879 26.5 23.3509 26.6069 23.9733 26.8049C23.7178 27.505 23.396 28.1435 23.0697 28.6947C22.756 29.2247 22.4421 29.667 22.188 29.9971ZM23.56 29.7952C24.6317 29.5074 25.5849 28.9303 26.3307 28.1527C25.9014 27.7689 25.4207 27.4412 24.9003 27.1814C24.62 27.9419 24.2729 28.6253 23.9303 29.2041C23.8058 29.4144 23.6813 29.6119 23.56 29.7952ZM26.9613 27.3753C27.6168 26.4137 28 25.2516 28 24C28 20.6863 25.3137 18 22 18C18.6863 18 16 20.6863 16 24C16 25.2516 16.3832 26.4137 17.0387 27.3753C17.5641 26.9116 18.1549 26.5203 18.7956 26.2171C18.6131 25.5202 18.5 24.7756 18.5 24C18.5 23.2245 18.6131 22.4798 18.7956 21.7829C18.1549 21.4797 17.5641 21.0885 17.0387 20.6247C17.2273 20.3481 17.4384 20.0881 17.6693 19.8473C18.0987 20.2311 18.5793 20.5588 19.0997 20.8187C19.38 20.0581 19.7271 19.3747 20.0697 18.796C20.1942 18.5856 20.3187 18.3882 20.4401 18.2048C20.8795 18.0868 21.3389 18.0175 21.812 18.0029C21.5579 18.3331 21.244 18.7754 20.9303 19.3054C20.604 19.8565 20.2822 20.4951 20.0268 21.1951C20.6491 21.3932 21.3121 21.5 22 21.5C22.6879 21.5 23.3509 21.3932 23.9732 21.1951C23.7178 20.4951 23.396 19.8565 23.0697 19.3054C22.756 18.7754 22.4421 18.3331 22.188 18.0029C22.6611 18.0175 23.1205 18.0868 23.5599 18.2048C23.6813 18.3882 23.8058 18.5856 23.9303 18.796C24.2729 19.3747 24.62 20.0581 24.9003 20.8187C25.4207 20.5588 25.9014 20.2311 26.3307 19.8473C26.5617 20.0881 26.7727 20.3481 26.9613 20.6247C26.4359 21.0885 25.8451 21.4798 25.2044 21.7829C25.3869 22.4798 25.5 23.2245 25.5 24C25.5 24.7756 25.3869 25.5202 25.2045 26.2171C25.8451 26.5203 26.4359 26.9116 26.9613 27.3753ZM17.6568 28.1396C18.4045 28.9238 19.3623 29.5058 20.44 29.7952C20.3187 29.6119 20.1942 29.4144 20.0697 29.2041C19.7271 28.6253 19.38 27.9419 19.0997 27.1814C18.5793 27.4412 18.0986 27.7689 17.6693 28.1527C17.6651 28.1484 17.661 28.144 17.6568 28.1396ZM22 22.5C22.7899 22.5 23.5513 22.3779 24.2664 22.1515C24.4121 22.7408 24.5 23.3612 24.5 24C24.5 24.6389 24.4121 25.2592 24.2664 25.8485C23.5513 25.6221 22.7899 25.5 22 25.5C21.2101 25.5 20.4487 25.6221 19.7336 25.8485C19.5879 25.2592 19.5 24.6389 19.5 24C19.5 23.3612 19.5879 22.7408 19.7336 22.1515C20.4487 22.3779 21.2101 22.5 22 22.5Z" fill="#00A88E"/>
</svg>
