<svg width="44" height="44" viewBox="0 0 44 44" fill="none" xmlns="http://www.w3.org/2000/svg">
<path d="M8 12H7V13H8V12Z" fill="#00A88E"/>
<path d="M8 12H7V13H8V12Z" fill="#00A88E"/>
<path d="M10 12H9V13H10V12Z" fill="#00A88E"/>
<path d="M12 12H11V13H12V12Z" fill="#00A88E"/>
<path fill-rule="evenodd" clip-rule="evenodd" d="M40 35V9H4V35H40ZM6 11H38V14H6V11ZM6 15H38V33H6V15Z" fill="#00A88E"/>
<path fill-rule="evenodd" clip-rule="evenodd" d="M31.9991 30H16.9991V28H31.9991V30Z" fill="#1D1D1B"/>
<path fill-rule="evenodd" clip-rule="evenodd" d="M13.5845 22.9677L9.77539 26.7768L11.1896 28.191L16.4129 22.9677L11.1896 17.7444L9.77539 19.1586L13.5845 22.9677Z" fill="#1D1D1B"/>
</svg>
