<svg width="44" height="44" viewBox="0 0 44 44" fill="none" xmlns="http://www.w3.org/2000/svg">
<rect width="44" height="44" fill="white"/>
<path fill-rule="evenodd" clip-rule="evenodd" d="M40 8H4V32H21V34H16V36H28V34H23V32H40V8ZM38 30H6V10H38V30Z" fill="#1D1D1B"/>
<path d="M8.51953 18.216H10.2715L10.9435 20.856C11.0235 21.168 11.0835 21.5 11.1235 21.852H11.3635C11.4275 21.396 11.4915 21.064 11.5555 20.856L12.2755 18.216H13.7875L14.4955 20.856C14.5755 21.168 14.6355 21.5 14.6755 21.852H14.9155C14.9555 21.5 15.0155 21.168 15.0955 20.856L15.7675 18.216H17.5195L15.8155 24H13.9435L13.3075 21.96C13.2515 21.792 13.1955 21.584 13.1395 21.336H12.8995C12.8435 21.584 12.7875 21.792 12.7315 21.96L12.0955 24H10.2235L8.51953 18.216Z" fill="#00A88E"/>
<path d="M18 18.216H19.752L20.424 20.856C20.504 21.168 20.564 21.5 20.604 21.852H20.844C20.908 21.396 20.972 21.064 21.036 20.856L21.756 18.216H23.268L23.976 20.856C24.056 21.168 24.116 21.5 24.156 21.852H24.396C24.436 21.5 24.496 21.168 24.576 20.856L25.248 18.216H27L25.296 24H23.424L22.788 21.96C22.732 21.792 22.676 21.584 22.62 21.336H22.38C22.324 21.584 22.268 21.792 22.212 21.96L21.576 24H19.704L18 18.216Z" fill="#00A88E"/>
<path d="M27.4805 18.216H29.2325L29.9045 20.856C29.9845 21.168 30.0445 21.5 30.0845 21.852H30.3245C30.3885 21.396 30.4525 21.064 30.5165 20.856L31.2365 18.216H32.7485L33.4565 20.856C33.5365 21.168 33.5965 21.5 33.6365 21.852H33.8765C33.9165 21.5 33.9765 21.168 34.0565 20.856L34.7285 18.216H36.4805L34.7765 24H32.9045L32.2685 21.96C32.2125 21.792 32.1565 21.584 32.1005 21.336H31.8605C31.8045 21.584 31.7485 21.792 31.6925 21.96L31.0565 24H29.1845L27.4805 18.216Z" fill="#00A88E"/>
</svg>
